<mxfile host="app.diagrams.net" agent="Mozilla/5.0 (Windows NT 10.0; Win64; x64) AppleWebKit/537.36 (KHTML, like Gecko) Chrome/137.0.0.0 Safari/537.36" version="28.2.8">
  <diagram id="kgpKYQtTHZ0yAKxKKP6v" name="Page-1">
    <mxGraphModel grid="1" page="1" gridSize="10" guides="1" tooltips="1" connect="1" arrows="1" fold="1" pageScale="1" pageWidth="850" pageHeight="1100" math="0" shadow="0">
      <root>
        <mxCell id="0" />
        <mxCell id="1" parent="0" />
        <mxCell id="eS7bQEbuIp_IzWAYBrHV-60" value="alternative" style="shape=umlFrame;tabWidth=110;tabHeight=30;tabPosition=left;html=1;boundedLbl=1;labelInHeader=1;width=90;height=30;fontSize=16;" vertex="1" parent="1">
          <mxGeometry x="50" y="410" width="720" height="170" as="geometry" />
        </mxCell>
        <mxCell id="eS7bQEbuIp_IzWAYBrHV-61" value="[ User found ]" style="text;fontSize=16;" vertex="1" parent="eS7bQEbuIp_IzWAYBrHV-60">
          <mxGeometry width="100" height="20" relative="1" as="geometry">
            <mxPoint x="20" y="40" as="offset" />
          </mxGeometry>
        </mxCell>
        <mxCell id="eS7bQEbuIp_IzWAYBrHV-62" value="[ User not found ]" style="line;strokeWidth=1;dashed=1;labelPosition=center;verticalLabelPosition=bottom;align=left;verticalAlign=top;spacingLeft=20;spacingTop=15;fontSize=16;" vertex="1" parent="eS7bQEbuIp_IzWAYBrHV-60">
          <mxGeometry y="80.52894736842106" width="720" height="8.947368421052632" as="geometry" />
        </mxCell>
        <mxCell id="3nuBFxr9cyL0pnOWT2aG-7" value="9.1 Sai thông tin" style="verticalAlign=bottom;endArrow=open;dashed=1;shadow=0;strokeWidth=1;fontSize=16;strokeColor=#000000;endFill=0;exitX=0.076;exitY=0.382;exitDx=0;exitDy=0;exitPerimeter=0;entryX=1.076;entryY=0.432;entryDx=0;entryDy=0;entryPerimeter=0;" edge="1" parent="1" source="eS7bQEbuIp_IzWAYBrHV-137" target="bhTSrjjyyR9pVHbrj2R5-7">
          <mxGeometry relative="1" as="geometry">
            <mxPoint x="520" y="425" as="targetPoint" />
            <mxPoint x="734" y="280" as="sourcePoint" />
          </mxGeometry>
        </mxCell>
        <mxCell id="3nuBFxr9cyL0pnOWT2aG-8" value="4: Nhập Gmail và mật khẩu" style="verticalAlign=bottom;endArrow=block;shadow=0;strokeWidth=1;fontSize=16;strokeColor=#000000;entryX=0;entryY=0;entryDx=0;entryDy=0;" edge="1" parent="1" source="yMhDW9J8UnRE1NHvTh-A-1" target="bhTSrjjyyR9pVHbrj2R5-7">
          <mxGeometry relative="1" as="geometry">
            <mxPoint x="215" y="190" as="sourcePoint" />
            <mxPoint x="490" y="300" as="targetPoint" />
          </mxGeometry>
        </mxCell>
        <mxCell id="eS7bQEbuIp_IzWAYBrHV-3" value="5. Ấn nút bạn đã có tài khoản" style="verticalAlign=bottom;endArrow=block;shadow=0;strokeWidth=1;fontSize=16;strokeColor=#000000;entryX=0.018;entryY=0.083;entryDx=0;entryDy=0;entryPerimeter=0;" edge="1" parent="1" source="yMhDW9J8UnRE1NHvTh-A-1" target="bhTSrjjyyR9pVHbrj2R5-7">
          <mxGeometry relative="1" as="geometry">
            <mxPoint x="209.5" y="190.10000000000002" as="sourcePoint" />
            <mxPoint x="490" y="320" as="targetPoint" />
          </mxGeometry>
        </mxCell>
        <mxCell id="eS7bQEbuIp_IzWAYBrHV-5" value="6. Xác thực tài khoản" style="verticalAlign=bottom;endArrow=block;shadow=0;strokeWidth=1;fontSize=16;strokeColor=#000000;entryX=0.25;entryY=0;entryDx=0;entryDy=0;exitX=1.076;exitY=0.134;exitDx=0;exitDy=0;exitPerimeter=0;" edge="1" parent="1" source="bhTSrjjyyR9pVHbrj2R5-7" target="eS7bQEbuIp_IzWAYBrHV-137">
          <mxGeometry relative="1" as="geometry">
            <mxPoint x="520" y="330" as="sourcePoint" />
            <mxPoint x="720" y="300" as="targetPoint" />
          </mxGeometry>
        </mxCell>
        <mxCell id="eS7bQEbuIp_IzWAYBrHV-75" value="10.2. Đăng nhập thành công" style="html=1;verticalAlign=bottom;labelBackgroundColor=none;endArrow=open;endFill=0;fontSize=16;strokeWidth=1;dashed=1;exitX=0.018;exitY=0.778;exitDx=0;exitDy=0;exitPerimeter=0;" edge="1" parent="1" source="bhTSrjjyyR9pVHbrj2R5-7" target="yMhDW9J8UnRE1NHvTh-A-1">
          <mxGeometry width="160" relative="1" as="geometry">
            <mxPoint x="490" y="480" as="sourcePoint" />
            <mxPoint x="275" y="330" as="targetPoint" />
          </mxGeometry>
        </mxCell>
        <mxCell id="eS7bQEbuIp_IzWAYBrHV-79" value="11. Hiển thị menu App" style="html=1;verticalAlign=bottom;labelBackgroundColor=none;endArrow=open;endFill=0;fontSize=16;strokeWidth=1;dashed=1;exitX=0.018;exitY=0.932;exitDx=0;exitDy=0;exitPerimeter=0;" edge="1" parent="1" source="bhTSrjjyyR9pVHbrj2R5-7" target="yMhDW9J8UnRE1NHvTh-A-1">
          <mxGeometry width="160" relative="1" as="geometry">
            <mxPoint x="490" y="610" as="sourcePoint" />
            <mxPoint x="220" y="390" as="targetPoint" />
          </mxGeometry>
        </mxCell>
        <mxCell id="yMhDW9J8UnRE1NHvTh-A-1" value="ACTOR" style="shape=umlLifeline;participant=umlActor;perimeter=lifelinePerimeter;whiteSpace=wrap;html=1;container=1;collapsible=0;recursiveResize=0;verticalAlign=top;spacingTop=36;outlineConnect=0;" vertex="1" parent="1">
          <mxGeometry x="190" y="70" width="20" height="610" as="geometry" />
        </mxCell>
        <mxCell id="eS7bQEbuIp_IzWAYBrHV-81" value="9.2 Đúng" style="verticalAlign=bottom;endArrow=open;dashed=1;endSize=8;shadow=0;strokeWidth=1;fontSize=16;strokeColor=#000000;exitX=0;exitY=0.75;exitDx=0;exitDy=0;endFill=0;entryX=1.076;entryY=0.703;entryDx=0;entryDy=0;entryPerimeter=0;" edge="1" parent="1" source="eS7bQEbuIp_IzWAYBrHV-137" target="bhTSrjjyyR9pVHbrj2R5-7">
          <mxGeometry relative="1" as="geometry">
            <mxPoint x="520" y="441" as="targetPoint" />
            <mxPoint x="734.5" y="399.88" as="sourcePoint" />
          </mxGeometry>
        </mxCell>
        <mxCell id="eS7bQEbuIp_IzWAYBrHV-82" value="10.1. Không thành công" style="html=1;verticalAlign=bottom;labelBackgroundColor=none;endArrow=open;endFill=0;fontSize=16;strokeWidth=1;dashed=1;exitX=0.018;exitY=0.526;exitDx=0;exitDy=0;exitPerimeter=0;" edge="1" parent="1" source="bhTSrjjyyR9pVHbrj2R5-7" target="yMhDW9J8UnRE1NHvTh-A-1">
          <mxGeometry width="160" relative="1" as="geometry">
            <mxPoint x="490" y="400" as="sourcePoint" />
            <mxPoint x="219.5" y="329.79999999999995" as="targetPoint" />
          </mxGeometry>
        </mxCell>
        <mxCell id="eS7bQEbuIp_IzWAYBrHV-125" value="App" style="shape=rect;html=1;whiteSpace=wrap;align=center;fontSize=16;" vertex="1" parent="1">
          <mxGeometry x="460" y="80" width="90" height="40" as="geometry" />
        </mxCell>
        <mxCell id="eS7bQEbuIp_IzWAYBrHV-126" value="" style="shape=rect;html=1;fontSize=16;fillColor=#EEEEEE;" vertex="1" parent="1">
          <mxGeometry x="500" y="160" width="10" height="40" as="geometry" />
        </mxCell>
        <mxCell id="eS7bQEbuIp_IzWAYBrHV-127" value="" style="edgeStyle=none;html=1;dashed=1;endArrow=none;fontSize=16;strokeWidth=1;" edge="1" parent="1" source="eS7bQEbuIp_IzWAYBrHV-125" target="eS7bQEbuIp_IzWAYBrHV-126">
          <mxGeometry relative="1" as="geometry" />
        </mxCell>
        <mxCell id="eS7bQEbuIp_IzWAYBrHV-128" value="" style="edgeStyle=none;html=1;dashed=1;endArrow=none;fontSize=16;strokeWidth=1;" edge="1" parent="1" source="eS7bQEbuIp_IzWAYBrHV-126">
          <mxGeometry x="1" relative="1" as="geometry">
            <mxPoint x="505" y="680" as="targetPoint" />
          </mxGeometry>
        </mxCell>
        <mxCell id="eS7bQEbuIp_IzWAYBrHV-136" value="Hệ thống" style="shape=rect;html=1;whiteSpace=wrap;align=center;fontSize=16;" vertex="1" parent="1">
          <mxGeometry x="690" y="80" width="90" height="40" as="geometry" />
        </mxCell>
        <mxCell id="eS7bQEbuIp_IzWAYBrHV-137" value="" style="shape=rect;html=1;fillColor=#eeeeee;fontSize=16;" vertex="1" parent="1">
          <mxGeometry x="730" y="330" width="10" height="270" as="geometry" />
        </mxCell>
        <mxCell id="eS7bQEbuIp_IzWAYBrHV-138" value="" style="edgeStyle=none;html=1;dashed=1;endArrow=none;fontSize=16;strokeWidth=1;" edge="1" parent="1" source="eS7bQEbuIp_IzWAYBrHV-136" target="eS7bQEbuIp_IzWAYBrHV-137">
          <mxGeometry relative="1" as="geometry" />
        </mxCell>
        <mxCell id="eS7bQEbuIp_IzWAYBrHV-139" value="" style="edgeStyle=none;html=1;dashed=1;endArrow=none;fontSize=16;strokeWidth=1;" edge="1" parent="1" source="eS7bQEbuIp_IzWAYBrHV-137">
          <mxGeometry x="1" relative="1" as="geometry">
            <mxPoint x="735" y="680" as="targetPoint" />
          </mxGeometry>
        </mxCell>
        <mxCell id="eS7bQEbuIp_IzWAYBrHV-140" value="Database" style="shape=rect;html=1;whiteSpace=wrap;align=center;fontSize=16;" vertex="1" parent="1">
          <mxGeometry x="855" y="80" width="90" height="40" as="geometry" />
        </mxCell>
        <mxCell id="eS7bQEbuIp_IzWAYBrHV-141" value="" style="shape=rect;html=1;fillColor=#eeeeee;fontSize=16;" vertex="1" parent="1">
          <mxGeometry x="895" y="360" width="10" height="50" as="geometry" />
        </mxCell>
        <mxCell id="eS7bQEbuIp_IzWAYBrHV-142" value="" style="edgeStyle=none;html=1;dashed=1;endArrow=none;fontSize=16;strokeWidth=1;" edge="1" parent="1" source="eS7bQEbuIp_IzWAYBrHV-140" target="eS7bQEbuIp_IzWAYBrHV-141">
          <mxGeometry relative="1" as="geometry" />
        </mxCell>
        <mxCell id="eS7bQEbuIp_IzWAYBrHV-143" value="" style="edgeStyle=none;html=1;dashed=1;endArrow=none;fontSize=16;strokeWidth=1;" edge="1" parent="1" source="eS7bQEbuIp_IzWAYBrHV-141">
          <mxGeometry x="1" relative="1" as="geometry">
            <mxPoint x="900" y="680" as="targetPoint" />
          </mxGeometry>
        </mxCell>
        <mxCell id="eS7bQEbuIp_IzWAYBrHV-145" value="7. Thực thi()" style="html=1;verticalAlign=bottom;labelBackgroundColor=none;endArrow=block;endFill=1;fontSize=16;strokeWidth=1;entryX=0;entryY=0;entryDx=0;entryDy=0;exitX=1.018;exitY=0.112;exitDx=0;exitDy=0;exitPerimeter=0;" edge="1" parent="1" source="eS7bQEbuIp_IzWAYBrHV-137" target="eS7bQEbuIp_IzWAYBrHV-141">
          <mxGeometry width="160" relative="1" as="geometry">
            <mxPoint x="741" y="280" as="sourcePoint" />
            <mxPoint x="890" y="280" as="targetPoint" />
          </mxGeometry>
        </mxCell>
        <mxCell id="eS7bQEbuIp_IzWAYBrHV-146" value="8. Return result" style="verticalAlign=bottom;endArrow=open;dashed=1;endSize=8;shadow=0;strokeWidth=1;fontSize=16;strokeColor=#000000;entryX=1;entryY=0.25;entryDx=0;entryDy=0;exitX=0;exitY=0.75;exitDx=0;exitDy=0;" edge="1" parent="1" source="eS7bQEbuIp_IzWAYBrHV-141" target="eS7bQEbuIp_IzWAYBrHV-137">
          <mxGeometry relative="1" as="geometry">
            <mxPoint x="735" y="350" as="targetPoint" />
            <mxPoint x="880" y="400" as="sourcePoint" />
          </mxGeometry>
        </mxCell>
        <mxCell id="bhTSrjjyyR9pVHbrj2R5-1" value="1. Yêu cầu đăng nhập" style="verticalAlign=bottom;endArrow=block;shadow=0;strokeWidth=1;fontSize=16;strokeColor=#000000;entryX=0;entryY=0;entryDx=0;entryDy=0;" edge="1" parent="1" source="yMhDW9J8UnRE1NHvTh-A-1" target="eS7bQEbuIp_IzWAYBrHV-126">
          <mxGeometry relative="1" as="geometry">
            <mxPoint x="219.32352941176464" y="220" as="sourcePoint" />
            <mxPoint x="490" y="178" as="targetPoint" />
          </mxGeometry>
        </mxCell>
        <mxCell id="bhTSrjjyyR9pVHbrj2R5-4" value="2. Hiện ra form đăng nhập" style="verticalAlign=bottom;endArrow=block;shadow=0;strokeWidth=1;fontSize=16;strokeColor=#000000;exitX=1;exitY=0.5;exitDx=0;exitDy=0;edgeStyle=orthogonalEdgeStyle;entryX=1;entryY=0;entryDx=0;entryDy=0;" edge="1" parent="1" source="eS7bQEbuIp_IzWAYBrHV-126" target="bhTSrjjyyR9pVHbrj2R5-5">
          <mxGeometry x="0.1665" y="40" relative="1" as="geometry">
            <mxPoint x="540.0035294117647" y="190" as="sourcePoint" />
            <mxPoint x="540" y="190" as="targetPoint" />
            <Array as="points">
              <mxPoint x="550" y="180" />
              <mxPoint x="550" y="220" />
            </Array>
            <mxPoint y="-1" as="offset" />
          </mxGeometry>
        </mxCell>
        <mxCell id="bhTSrjjyyR9pVHbrj2R5-5" value="" style="shape=rect;html=1;fontSize=16;fillColor=#EEEEEE;" vertex="1" parent="1">
          <mxGeometry x="500" y="220" width="10" height="40" as="geometry" />
        </mxCell>
        <mxCell id="bhTSrjjyyR9pVHbrj2R5-6" value="3. Form đăng nhập" style="verticalAlign=bottom;endArrow=open;dashed=1;shadow=0;strokeWidth=1;fontSize=16;strokeColor=#000000;exitX=0;exitY=0.5;exitDx=0;exitDy=0;endFill=0;" edge="1" parent="1" source="bhTSrjjyyR9pVHbrj2R5-5" target="yMhDW9J8UnRE1NHvTh-A-1">
          <mxGeometry relative="1" as="geometry">
            <mxPoint x="280" y="239" as="targetPoint" />
            <mxPoint x="490" y="241" as="sourcePoint" />
          </mxGeometry>
        </mxCell>
        <mxCell id="bhTSrjjyyR9pVHbrj2R5-7" value="" style="shape=rect;html=1;fontSize=16;fillColor=#EEEEEE;" vertex="1" parent="1">
          <mxGeometry x="500" y="280" width="10" height="360" as="geometry" />
        </mxCell>
      </root>
    </mxGraphModel>
  </diagram>
</mxfile>
